<svg xmlns="http://www.w3.org/2000/svg" width="64" height="64" viewBox="0 0 64 64" role="img" aria-labelledby="title desc">
  <title id="title">CRA Risk Workbench logo</title>
  <desc id="desc">A shield with a small risk matrix and CRA mark.</desc>
  <defs>
    <linearGradient id="shieldGradient" x1="13" y1="7" x2="50" y2="58" gradientUnits="userSpaceOnUse">
      <stop offset="0" stop-color="#3d8d70"/>
      <stop offset="1" stop-color="#184b3b"/>
    </linearGradient>
    <linearGradient id="panelGradient" x1="20" y1="17" x2="45" y2="40" gradientUnits="userSpaceOnUse">
      <stop offset="0" stop-color="#f8f9f5"/>
      <stop offset="1" stop-color="#cfe7d8"/>
    </linearGradient>
    <filter id="softShadow" x="-20%" y="-20%" width="140%" height="140%">
      <feDropShadow dx="0" dy="3" stdDeviation="3" flood-color="#0c1712" flood-opacity="0.32"/>
    </filter>
  </defs>
  <path d="M32 5 52 13.5v15.7c0 13.3-8.1 23.6-20 29.8-11.9-6.2-20-16.5-20-29.8V13.5L32 5Z" fill="url(#shieldGradient)" stroke="#8fc8ad" stroke-width="1.2" filter="url(#softShadow)"/>
  <path d="M20 18.5h24a2.5 2.5 0 0 1 2.5 2.5v17A2.5 2.5 0 0 1 44 40.5H20a2.5 2.5 0 0 1-2.5-2.5V21a2.5 2.5 0 0 1 2.5-2.5Z" fill="url(#panelGradient)" stroke="#dff3e7" stroke-width="1"/>
  <path d="M17.5 26h29M17.5 33h29M27 18.5v22M36.5 18.5v22" stroke="#2d5e4c" stroke-width="1.15" opacity="0.55"/>
  <path d="M22.5 34.5 29 28l6.2 4.6 7.1-9.1" fill="none" stroke="#b76e00" stroke-width="2.25" stroke-linecap="round" stroke-linejoin="round"/>
  <circle cx="22.5" cy="34.5" r="2.3" fill="#b76e00"/>
  <circle cx="29" cy="28" r="2.3" fill="#b76e00"/>
  <circle cx="35.2" cy="32.6" r="2.3" fill="#b76e00"/>
  <circle cx="42.3" cy="23.5" r="2.3" fill="#b76e00"/>
  <text x="32" y="53" fill="#f8f9f5" font-family="Arial, Helvetica, sans-serif" font-size="10" font-weight="700" text-anchor="middle" letter-spacing=".8">CRA</text>
</svg>
